<svg width="100.000000" height="20.000000" viewBox="0 0 100 20" fill="none" xmlns="http://www.w3.org/2000/svg" xmlns:xlink="http://www.w3.org/1999/xlink">
	<desc>
			Created with Pixso.
	</desc>
	<defs>
		<clipPath id="clip2031_75">
			<rect id="IMAGE" width="100.000000" height="20.000000" fill="white" fill-opacity="0"/>
		</clipPath>
	</defs>
	<g clip-path="url(#clip2031_75)">
		<path id="Vector" d="M0 19.65L0 0L16.47 0C18.59 0 20.39 0.35 21.85 1.05C23.33 1.76 24.45 2.84 25.21 4.29C25.99 5.72 26.38 7.56 26.38 9.81C26.38 12.04 25.99 13.89 25.21 15.36C24.45 16.81 23.33 17.89 21.85 18.59C20.39 19.3 18.59 19.65 16.47 19.65L0 19.65ZM5.09 15.65L16.41 15.65C17.21 15.65 17.9 15.53 18.49 15.3C19.08 15.07 19.57 14.74 19.97 14.3C20.37 13.86 20.66 13.32 20.85 12.67C21.04 12.02 21.14 11.28 21.14 10.44L21.14 9.24C21.14 8.38 21.04 7.63 20.85 6.98C20.66 6.33 20.37 5.78 19.97 5.35C19.57 4.91 19.08 4.57 18.49 4.34C17.9 4.12 17.21 4 16.41 4L5.09 4L5.09 15.65Z" fill="#FFFFFF" fill-opacity="1.000000" fill-rule="nonzero"/>
		<path id="Vector" d="M29.5 19.65L29.5 0L49.17 0C50.61 0 51.81 0.27 52.78 0.82C53.75 1.36 54.47 2.1 54.95 3.06C55.44 3.99 55.69 5.04 55.69 6.2C55.69 7.46 55.39 8.59 54.8 9.58C54.23 10.55 53.43 11.32 52.38 11.87L56.31 19.65L50.62 19.65L47.37 12.73L34.6 12.73L34.6 19.65L29.5 19.65ZM34.6 8.92L48.17 8.92C48.87 8.92 49.43 8.69 49.85 8.24C50.29 7.76 50.51 7.13 50.51 6.35C50.51 5.83 50.41 5.39 50.22 5.03C50.03 4.67 49.77 4.39 49.42 4.2C49.08 3.99 48.66 3.89 48.17 3.89L34.6 3.89L34.6 8.92Z" fill="#FFFFFF" fill-opacity="1.000000" fill-rule="nonzero"/>
		<path id="Vector" d="M67.68 20C65.8 20 64.18 19.7 62.81 19.11C61.46 18.52 60.43 17.63 59.71 16.45C58.98 15.26 58.62 13.8 58.62 12.04L58.62 0L63.75 0L63.75 11.93C63.75 13.19 64.08 14.18 64.74 14.9C65.41 15.63 66.39 15.99 67.68 15.99C68.97 15.99 69.95 15.63 70.64 14.9C71.32 14.18 71.66 13.19 71.66 11.93L71.66 0L76.76 0L76.76 12.04C76.76 13.8 76.4 15.26 75.68 16.45C74.96 17.63 73.92 18.52 72.57 19.11C71.23 19.7 69.59 20 67.68 20Z" fill="#FFFFFF" fill-opacity="1.000000" fill-rule="nonzero"/>
		<path id="Vector" d="M80.69 19.65L80.69 0L85.79 0L85.79 8.72L93.53 0L99.85 0L92.56 8.04L100 19.65L93.96 19.65L89.03 11.53L85.79 14.53L85.79 19.65L80.69 19.65Z" fill="#FFFFFF" fill-opacity="1.000000" fill-rule="nonzero"/>
	</g>
</svg>
