<svg width="112.000000" height="36.000000" viewBox="0 0 112 36" fill="none" xmlns="http://www.w3.org/2000/svg" xmlns:xlink="http://www.w3.org/1999/xlink">
	<desc>
			Created with Pixso.
	</desc>
	<defs>
		<clipPath id="clip2031_8">
			<rect id="IMAGE" width="112.000000" height="36.000000" transform="translate(-0.000122 0.000000)" fill="white" fill-opacity="0"/>
		</clipPath>
	</defs>
	<g clip-path="url(#clip2031_8)">
		<path id="Vector" d="M48.06 20.79C48.06 16.52 45.55 13.31 41.66 13.31C39.93 13.31 38.47 14.04 37.42 15.44L37.42 8.61L33.67 8.61L33.67 28L37.12 28L37.12 25.92C38.23 27.43 39.8 28.27 41.66 28.27C45.55 28.27 48.06 25 48.06 20.79ZM44.2 20.79C44.2 23.49 42.66 24.92 40.82 24.92C38.96 24.92 37.45 23.46 37.45 20.73C37.45 18.01 39.01 16.63 40.82 16.63C42.66 16.63 44.2 18.03 44.2 20.79ZM52.89 28L52.89 8.61L49.11 8.61L49.11 28L52.89 28ZM63.5 28L66.55 28L66.55 18.92C66.55 15.39 64.33 13.31 60.55 13.31C57.07 13.31 54.67 15.47 54.45 18.79L57.83 18.79C57.96 17.17 58.93 16.22 60.55 16.22C62.12 16.22 63.04 17.17 63.04 18.79L63.04 19.65C62.15 19.54 61.44 19.49 60.63 19.49C56.42 19.49 54.15 21 54.15 23.81C54.15 26.51 56.15 28.27 59.15 28.27C61.12 28.27 62.55 27.56 63.5 26.21L63.5 28ZM57.69 23.7C57.69 22.41 58.74 21.73 60.88 21.73C61.53 21.73 62.15 21.79 63.04 21.92L63.04 22.95C63.04 24.62 61.88 25.67 59.96 25.67C58.56 25.67 57.69 24.92 57.69 23.7ZM72.18 20.14C72.18 17.82 73.45 16.63 74.94 16.63C76.64 16.63 77.48 17.82 77.48 19.95L77.48 28L81.2 28L81.2 18.68C81.2 15.2 79.2 13.31 76.32 13.31C74.43 13.31 72.94 14.2 71.89 15.63L71.89 13.58L68.43 13.58L68.43 28L72.18 28L72.18 20.14ZM86.84 28L86.84 21.3L92.35 28L97.13 28L90.46 20.49L96.42 13.58L92.1 13.58L86.84 19.68L86.84 8.61L83.09 8.61L83.09 28L86.84 28ZM102.98 28.27C107.16 28.27 110.3 24.97 110.3 20.79C110.3 16.57 107.16 13.31 102.98 13.31C98.79 13.31 95.66 16.57 95.66 20.79C95.66 24.97 98.79 28.27 102.98 28.27ZM102.98 24.94C101.12 24.94 99.52 23.46 99.52 20.79C99.52 18.11 101.12 16.65 102.98 16.65C104.84 16.65 106.44 18.11 106.44 20.79C106.44 23.46 104.84 24.94 102.98 24.94Z" fill="#FFFFFF" fill-opacity="1.000000" fill-rule="nonzero"/>
		<path id="Vector" d="M16.99 6L21.99 6L21.99 23L16.99 23L16.99 6Z" fill="#FF7043" fill-opacity="1.000000" fill-rule="evenodd"/>
		<path id="Vector" d="M16.99 23L16.99 28L-0.01 28L-0.01 23L16.99 23Z" fill="#FF7043" fill-opacity="1.000000" fill-rule="evenodd"/>
		<path id="Vector" d="M21.99 6L21.99 11L4.99 11L4.99 6L21.99 6Z" fill="#FF7043" fill-opacity="1.000000" fill-rule="evenodd"/>
		<path id="Vector" d="M4.99 28L-0.01 28L-0.01 11L4.99 11L4.99 28Z" fill="#FF7043" fill-opacity="1.000000" fill-rule="evenodd"/>
	</g>
</svg>
